<?xml version="1.0" encoding="utf-8" standalone="no"?>
<!DOCTYPE svg PUBLIC "-//W3C//DTD SVG 1.1//EN"
  "http://www.w3.org/Graphics/SVG/1.1/DTD/svg11.dtd">
<svg xmlns:xlink="http://www.w3.org/1999/xlink" width="648pt" height="504pt" viewBox="0 0 648 504" xmlns="http://www.w3.org/2000/svg" version="1.1">
 <metadata>
  <rdf:RDF xmlns:dc="http://purl.org/dc/elements/1.1/" xmlns:cc="http://creativecommons.org/ns#" xmlns:rdf="http://www.w3.org/1999/02/22-rdf-syntax-ns#">
   <cc:Work>
    <dc:type rdf:resource="http://purl.org/dc/dcmitype/StillImage"/>
    <dc:date>2024-04-01T09:21:27.809736</dc:date>
    <dc:format>image/svg+xml</dc:format>
    <dc:creator>
     <cc:Agent>
      <dc:title>Matplotlib v3.8.3, https://matplotlib.org/</dc:title>
     </cc:Agent>
    </dc:creator>
   </cc:Work>
  </rdf:RDF>
 </metadata>
 <defs>
  <style type="text/css">*{stroke-linejoin: round; stroke-linecap: butt}</style>
 </defs>
 <g id="figure_1">
  <g id="patch_1">
   <path d="M 0 504 
L 648 504 
L 648 0 
L 0 0 
z
" style="fill: #ffffff"/>
  </g>
  <g id="axes_1">
   <g id="patch_2">
    <path d="M 97.2 438.768 
L 572.465455 438.768 
L 572.465455 10.8 
L 97.2 10.8 
z
" style="fill: #ffffff"/>
   </g>
   <g id="QuadMesh_1">
    <path d="M 140.40595 49.706182 
L 226.817851 49.706182 
L 226.817851 127.518545 
L 140.40595 127.518545 
L 140.40595 49.706182 
" clip-path="url(#p697b2be9bd)" style="fill: #828282"/>
    <path d="M 226.817851 49.706182 
L 313.229752 49.706182 
L 313.229752 127.518545 
L 226.817851 127.518545 
L 226.817851 49.706182 
" clip-path="url(#p697b2be9bd)" style="fill: none"/>
    <path d="M 313.229752 49.706182 
L 399.641653 49.706182 
L 399.641653 127.518545 
L 313.229752 127.518545 
L 313.229752 49.706182 
" clip-path="url(#p697b2be9bd)" style="fill: none"/>
    <path d="M 399.641653 49.706182 
L 486.053554 49.706182 
L 486.053554 127.518545 
L 399.641653 127.518545 
L 399.641653 49.706182 
" clip-path="url(#p697b2be9bd)" style="fill: none"/>
    <path d="M 486.053554 49.706182 
L 572.465455 49.706182 
L 572.465455 127.518545 
L 486.053554 127.518545 
L 486.053554 49.706182 
" clip-path="url(#p697b2be9bd)" style="fill: none"/>
    <path d="M 140.40595 127.518545 
L 226.817851 127.518545 
L 226.817851 205.330909 
L 140.40595 205.330909 
L 140.40595 127.518545 
" clip-path="url(#p697b2be9bd)" style="fill: none"/>
    <path d="M 226.817851 127.518545 
L 313.229752 127.518545 
L 313.229752 205.330909 
L 226.817851 205.330909 
L 226.817851 127.518545 
" clip-path="url(#p697b2be9bd)" style="fill: #d8d8d8"/>
    <path d="M 313.229752 127.518545 
L 399.641653 127.518545 
L 399.641653 205.330909 
L 313.229752 205.330909 
L 313.229752 127.518545 
" clip-path="url(#p697b2be9bd)" style="fill: none"/>
    <path d="M 399.641653 127.518545 
L 486.053554 127.518545 
L 486.053554 205.330909 
L 399.641653 205.330909 
L 399.641653 127.518545 
" clip-path="url(#p697b2be9bd)" style="fill: none"/>
    <path d="M 486.053554 127.518545 
L 572.465455 127.518545 
L 572.465455 205.330909 
L 486.053554 205.330909 
L 486.053554 127.518545 
" clip-path="url(#p697b2be9bd)" style="fill: none"/>
    <path d="M 140.40595 205.330909 
L 226.817851 205.330909 
L 226.817851 283.143273 
L 140.40595 283.143273 
L 140.40595 205.330909 
" clip-path="url(#p697b2be9bd)" style="fill: none"/>
    <path d="M 226.817851 205.330909 
L 313.229752 205.330909 
L 313.229752 283.143273 
L 226.817851 283.143273 
L 226.817851 205.330909 
" clip-path="url(#p697b2be9bd)" style="fill: none"/>
    <path d="M 313.229752 205.330909 
L 399.641653 205.330909 
L 399.641653 283.143273 
L 313.229752 283.143273 
L 313.229752 205.330909 
" clip-path="url(#p697b2be9bd)" style="fill: #f1f1f1"/>
    <path d="M 399.641653 205.330909 
L 486.053554 205.330909 
L 486.053554 283.143273 
L 399.641653 283.143273 
L 399.641653 205.330909 
" clip-path="url(#p697b2be9bd)" style="fill: none"/>
    <path d="M 486.053554 205.330909 
L 572.465455 205.330909 
L 572.465455 283.143273 
L 486.053554 283.143273 
L 486.053554 205.330909 
" clip-path="url(#p697b2be9bd)" style="fill: none"/>
    <path d="M 140.40595 283.143273 
L 226.817851 283.143273 
L 226.817851 360.955636 
L 140.40595 360.955636 
L 140.40595 283.143273 
" clip-path="url(#p697b2be9bd)" style="fill: none"/>
    <path d="M 226.817851 283.143273 
L 313.229752 283.143273 
L 313.229752 360.955636 
L 226.817851 360.955636 
L 226.817851 283.143273 
" clip-path="url(#p697b2be9bd)" style="fill: none"/>
    <path d="M 313.229752 283.143273 
L 399.641653 283.143273 
L 399.641653 360.955636 
L 313.229752 360.955636 
L 313.229752 283.143273 
" clip-path="url(#p697b2be9bd)" style="fill: none"/>
    <path d="M 399.641653 283.143273 
L 486.053554 283.143273 
L 486.053554 360.955636 
L 399.641653 360.955636 
L 399.641653 283.143273 
" clip-path="url(#p697b2be9bd)" style="fill: #e3e3e3"/>
    <path d="M 486.053554 283.143273 
L 572.465455 283.143273 
L 572.465455 360.955636 
L 486.053554 360.955636 
L 486.053554 283.143273 
" clip-path="url(#p697b2be9bd)" style="fill: none"/>
    <path d="M 140.40595 360.955636 
L 226.817851 360.955636 
L 226.817851 438.768 
L 140.40595 438.768 
L 140.40595 360.955636 
" clip-path="url(#p697b2be9bd)" style="fill: none"/>
    <path d="M 226.817851 360.955636 
L 313.229752 360.955636 
L 313.229752 438.768 
L 226.817851 438.768 
L 226.817851 360.955636 
" clip-path="url(#p697b2be9bd)" style="fill: none"/>
    <path d="M 313.229752 360.955636 
L 399.641653 360.955636 
L 399.641653 438.768 
L 313.229752 438.768 
L 313.229752 360.955636 
" clip-path="url(#p697b2be9bd)" style="fill: none"/>
    <path d="M 399.641653 360.955636 
L 486.053554 360.955636 
L 486.053554 438.768 
L 399.641653 438.768 
L 399.641653 360.955636 
" clip-path="url(#p697b2be9bd)" style="fill: none"/>
    <path d="M 486.053554 360.955636 
L 572.465455 360.955636 
L 572.465455 438.768 
L 486.053554 438.768 
L 486.053554 360.955636 
" clip-path="url(#p697b2be9bd)" style="fill: #808080"/>
   </g>
   <g id="QuadMesh_2">
    <path d="M 140.40595 49.706182 
L 226.817851 49.706182 
L 226.817851 127.518545 
L 140.40595 127.518545 
L 140.40595 49.706182 
" clip-path="url(#p697b2be9bd)" style="fill: none"/>
    <path d="M 226.817851 49.706182 
L 313.229752 49.706182 
L 313.229752 127.518545 
L 226.817851 127.518545 
L 226.817851 49.706182 
" clip-path="url(#p697b2be9bd)" style="fill: #fd2b2b"/>
    <path d="M 313.229752 49.706182 
L 399.641653 49.706182 
L 399.641653 127.518545 
L 313.229752 127.518545 
L 313.229752 49.706182 
" clip-path="url(#p697b2be9bd)" style="fill: #f5bcbc"/>
    <path d="M 399.641653 49.706182 
L 486.053554 49.706182 
L 486.053554 127.518545 
L 399.641653 127.518545 
L 399.641653 49.706182 
" clip-path="url(#p697b2be9bd)" style="fill: #f3eded"/>
    <path d="M 486.053554 49.706182 
L 572.465455 49.706182 
L 572.465455 127.518545 
L 486.053554 127.518545 
L 486.053554 49.706182 
" clip-path="url(#p697b2be9bd)" style="fill: #f3f0f0"/>
    <path d="M 140.40595 127.518545 
L 226.817851 127.518545 
L 226.817851 205.330909 
L 140.40595 205.330909 
L 140.40595 127.518545 
" clip-path="url(#p697b2be9bd)" style="fill: #fd3030"/>
    <path d="M 226.817851 127.518545 
L 313.229752 127.518545 
L 313.229752 205.330909 
L 226.817851 205.330909 
L 226.817851 127.518545 
" clip-path="url(#p697b2be9bd)" style="fill: none"/>
    <path d="M 313.229752 127.518545 
L 399.641653 127.518545 
L 399.641653 205.330909 
L 313.229752 205.330909 
L 313.229752 127.518545 
" clip-path="url(#p697b2be9bd)" style="fill: #fe1414"/>
    <path d="M 399.641653 127.518545 
L 486.053554 127.518545 
L 486.053554 205.330909 
L 399.641653 205.330909 
L 399.641653 127.518545 
" clip-path="url(#p697b2be9bd)" style="fill: #f7a7a7"/>
    <path d="M 486.053554 127.518545 
L 572.465455 127.518545 
L 572.465455 205.330909 
L 486.053554 205.330909 
L 486.053554 127.518545 
" clip-path="url(#p697b2be9bd)" style="fill: #f3f0f0"/>
    <path d="M 140.40595 205.330909 
L 226.817851 205.330909 
L 226.817851 283.143273 
L 140.40595 283.143273 
L 140.40595 205.330909 
" clip-path="url(#p697b2be9bd)" style="fill: #f5bcbc"/>
    <path d="M 226.817851 205.330909 
L 313.229752 205.330909 
L 313.229752 283.143273 
L 226.817851 283.143273 
L 226.817851 205.330909 
" clip-path="url(#p697b2be9bd)" style="fill: #fe1a1a"/>
    <path d="M 313.229752 205.330909 
L 399.641653 205.330909 
L 399.641653 283.143273 
L 313.229752 283.143273 
L 313.229752 205.330909 
" clip-path="url(#p697b2be9bd)" style="fill: none"/>
    <path d="M 399.641653 205.330909 
L 486.053554 205.330909 
L 486.053554 283.143273 
L 399.641653 283.143273 
L 399.641653 205.330909 
" clip-path="url(#p697b2be9bd)" style="fill: #ff0303"/>
    <path d="M 486.053554 205.330909 
L 572.465455 205.330909 
L 572.465455 283.143273 
L 486.053554 283.143273 
L 486.053554 205.330909 
" clip-path="url(#p697b2be9bd)" style="fill: #f5bebe"/>
    <path d="M 140.40595 283.143273 
L 226.817851 283.143273 
L 226.817851 360.955636 
L 140.40595 360.955636 
L 140.40595 283.143273 
" clip-path="url(#p697b2be9bd)" style="fill: #f3e9e9"/>
    <path d="M 226.817851 283.143273 
L 313.229752 283.143273 
L 313.229752 360.955636 
L 226.817851 360.955636 
L 226.817851 283.143273 
" clip-path="url(#p697b2be9bd)" style="fill: #f7a8a7"/>
    <path d="M 313.229752 283.143273 
L 399.641653 283.143273 
L 399.641653 360.955636 
L 313.229752 360.955636 
L 313.229752 283.143273 
" clip-path="url(#p697b2be9bd)" style="fill: #ff0000"/>
    <path d="M 399.641653 283.143273 
L 486.053554 283.143273 
L 486.053554 360.955636 
L 399.641653 360.955636 
L 399.641653 283.143273 
" clip-path="url(#p697b2be9bd)" style="fill: none"/>
    <path d="M 486.053554 283.143273 
L 572.465455 283.143273 
L 572.465455 360.955636 
L 486.053554 360.955636 
L 486.053554 283.143273 
" clip-path="url(#p697b2be9bd)" style="fill: #fd2b2b"/>
    <path d="M 140.40595 360.955636 
L 226.817851 360.955636 
L 226.817851 438.768 
L 140.40595 438.768 
L 140.40595 360.955636 
" clip-path="url(#p697b2be9bd)" style="fill: #f3efef"/>
    <path d="M 226.817851 360.955636 
L 313.229752 360.955636 
L 313.229752 438.768 
L 226.817851 438.768 
L 226.817851 360.955636 
" clip-path="url(#p697b2be9bd)" style="fill: #f3eded"/>
    <path d="M 313.229752 360.955636 
L 399.641653 360.955636 
L 399.641653 438.768 
L 313.229752 438.768 
L 313.229752 360.955636 
" clip-path="url(#p697b2be9bd)" style="fill: #f5c7c7"/>
    <path d="M 399.641653 360.955636 
L 486.053554 360.955636 
L 486.053554 438.768 
L 399.641653 438.768 
L 399.641653 360.955636 
" clip-path="url(#p697b2be9bd)" style="fill: #fd2828"/>
    <path d="M 486.053554 360.955636 
L 572.465455 360.955636 
L 572.465455 438.768 
L 486.053554 438.768 
L 486.053554 360.955636 
" clip-path="url(#p697b2be9bd)" style="fill: none"/>
   </g>
   <g id="matplotlib.axis_1">
    <g id="xtick_1">
     <g id="line2d_1">
      <defs>
       <path id="m296f345c19" d="M 0 0 
L 0 3.5 
" style="stroke: #000000; stroke-width: 0.8"/>
      </defs>
      <g>
       <use xlink:href="#m296f345c19" x="183.611901" y="438.768" style="stroke: #000000; stroke-width: 0.8"/>
      </g>
     </g>
     <g id="text_1">
      <!-- 0 -->
      <g transform="translate(180.430651 453.366437) scale(0.1 -0.1)">
       <defs>
        <path id="DejaVuSans-30" d="M 2034 4250 
Q 1547 4250 1301 3770 
Q 1056 3291 1056 2328 
Q 1056 1369 1301 889 
Q 1547 409 2034 409 
Q 2525 409 2770 889 
Q 3016 1369 3016 2328 
Q 3016 3291 2770 3770 
Q 2525 4250 2034 4250 
z
M 2034 4750 
Q 2819 4750 3233 4129 
Q 3647 3509 3647 2328 
Q 3647 1150 3233 529 
Q 2819 -91 2034 -91 
Q 1250 -91 836 529 
Q 422 1150 422 2328 
Q 422 3509 836 4129 
Q 1250 4750 2034 4750 
z
" transform="scale(0.015625)"/>
       </defs>
       <use xlink:href="#DejaVuSans-30"/>
      </g>
     </g>
    </g>
    <g id="xtick_2">
     <g id="line2d_2">
      <g>
       <use xlink:href="#m296f345c19" x="270.023802" y="438.768" style="stroke: #000000; stroke-width: 0.8"/>
      </g>
     </g>
     <g id="text_2">
      <!-- 1 -->
      <g transform="translate(266.842552 453.366437) scale(0.1 -0.1)">
       <defs>
        <path id="DejaVuSans-31" d="M 794 531 
L 1825 531 
L 1825 4091 
L 703 3866 
L 703 4441 
L 1819 4666 
L 2450 4666 
L 2450 531 
L 3481 531 
L 3481 0 
L 794 0 
L 794 531 
z
" transform="scale(0.015625)"/>
       </defs>
       <use xlink:href="#DejaVuSans-31"/>
      </g>
     </g>
    </g>
    <g id="xtick_3">
     <g id="line2d_3">
      <g>
       <use xlink:href="#m296f345c19" x="356.435702" y="438.768" style="stroke: #000000; stroke-width: 0.8"/>
      </g>
     </g>
     <g id="text_3">
      <!-- 2 -->
      <g transform="translate(353.254452 453.366437) scale(0.1 -0.1)">
       <defs>
        <path id="DejaVuSans-32" d="M 1228 531 
L 3431 531 
L 3431 0 
L 469 0 
L 469 531 
Q 828 903 1448 1529 
Q 2069 2156 2228 2338 
Q 2531 2678 2651 2914 
Q 2772 3150 2772 3378 
Q 2772 3750 2511 3984 
Q 2250 4219 1831 4219 
Q 1534 4219 1204 4116 
Q 875 4013 500 3803 
L 500 4441 
Q 881 4594 1212 4672 
Q 1544 4750 1819 4750 
Q 2544 4750 2975 4387 
Q 3406 4025 3406 3419 
Q 3406 3131 3298 2873 
Q 3191 2616 2906 2266 
Q 2828 2175 2409 1742 
Q 1991 1309 1228 531 
z
" transform="scale(0.015625)"/>
       </defs>
       <use xlink:href="#DejaVuSans-32"/>
      </g>
     </g>
    </g>
    <g id="xtick_4">
     <g id="line2d_4">
      <g>
       <use xlink:href="#m296f345c19" x="442.847603" y="438.768" style="stroke: #000000; stroke-width: 0.8"/>
      </g>
     </g>
     <g id="text_4">
      <!-- 3 -->
      <g transform="translate(439.666353 453.366437) scale(0.1 -0.1)">
       <defs>
        <path id="DejaVuSans-33" d="M 2597 2516 
Q 3050 2419 3304 2112 
Q 3559 1806 3559 1356 
Q 3559 666 3084 287 
Q 2609 -91 1734 -91 
Q 1441 -91 1130 -33 
Q 819 25 488 141 
L 488 750 
Q 750 597 1062 519 
Q 1375 441 1716 441 
Q 2309 441 2620 675 
Q 2931 909 2931 1356 
Q 2931 1769 2642 2001 
Q 2353 2234 1838 2234 
L 1294 2234 
L 1294 2753 
L 1863 2753 
Q 2328 2753 2575 2939 
Q 2822 3125 2822 3475 
Q 2822 3834 2567 4026 
Q 2313 4219 1838 4219 
Q 1578 4219 1281 4162 
Q 984 4106 628 3988 
L 628 4550 
Q 988 4650 1302 4700 
Q 1616 4750 1894 4750 
Q 2613 4750 3031 4423 
Q 3450 4097 3450 3541 
Q 3450 3153 3228 2886 
Q 3006 2619 2597 2516 
z
" transform="scale(0.015625)"/>
       </defs>
       <use xlink:href="#DejaVuSans-33"/>
      </g>
     </g>
    </g>
    <g id="xtick_5">
     <g id="line2d_5">
      <g>
       <use xlink:href="#m296f345c19" x="529.259504" y="438.768" style="stroke: #000000; stroke-width: 0.8"/>
      </g>
     </g>
     <g id="text_5">
      <!-- 4 -->
      <g transform="translate(526.078254 453.366437) scale(0.1 -0.1)">
       <defs>
        <path id="DejaVuSans-34" d="M 2419 4116 
L 825 1625 
L 2419 1625 
L 2419 4116 
z
M 2253 4666 
L 3047 4666 
L 3047 1625 
L 3713 1625 
L 3713 1100 
L 3047 1100 
L 3047 0 
L 2419 0 
L 2419 1100 
L 313 1100 
L 313 1709 
L 2253 4666 
z
" transform="scale(0.015625)"/>
       </defs>
       <use xlink:href="#DejaVuSans-34"/>
      </g>
     </g>
    </g>
    <g id="xtick_6">
     <g id="line2d_6">
      <path d="M 97.2 438.768 
L 97.2 10.8 
" clip-path="url(#p697b2be9bd)" style="fill: none; stroke: #000000; stroke-linecap: square"/>
     </g>
     <g id="line2d_7"/>
    </g>
   </g>
   <g id="matplotlib.axis_2">
    <g id="ytick_1">
     <g id="line2d_8">
      <defs>
       <path id="mb2ec868dcc" d="M 0 0 
L -3.5 0 
" style="stroke: #000000; stroke-width: 0.8"/>
      </defs>
      <g>
       <use xlink:href="#mb2ec868dcc" x="97.2" y="88.612364" style="stroke: #000000; stroke-width: 0.8"/>
      </g>
     </g>
     <g id="text_6">
      <!-- 0 -->
      <g transform="translate(88.120312 91.793614) rotate(-90) scale(0.1 -0.1)">
       <use xlink:href="#DejaVuSans-30"/>
      </g>
     </g>
    </g>
    <g id="ytick_2">
     <g id="line2d_9">
      <g>
       <use xlink:href="#mb2ec868dcc" x="97.2" y="166.424727" style="stroke: #000000; stroke-width: 0.8"/>
      </g>
     </g>
     <g id="text_7">
      <!-- 1 -->
      <g transform="translate(88.120312 169.605977) rotate(-90) scale(0.1 -0.1)">
       <use xlink:href="#DejaVuSans-31"/>
      </g>
     </g>
    </g>
    <g id="ytick_3">
     <g id="line2d_10">
      <g>
       <use xlink:href="#mb2ec868dcc" x="97.2" y="244.237091" style="stroke: #000000; stroke-width: 0.8"/>
      </g>
     </g>
     <g id="text_8">
      <!-- 2 -->
      <g transform="translate(88.120312 247.418341) rotate(-90) scale(0.1 -0.1)">
       <use xlink:href="#DejaVuSans-32"/>
      </g>
     </g>
    </g>
    <g id="ytick_4">
     <g id="line2d_11">
      <g>
       <use xlink:href="#mb2ec868dcc" x="97.2" y="322.049455" style="stroke: #000000; stroke-width: 0.8"/>
      </g>
     </g>
     <g id="text_9">
      <!-- 3 -->
      <g transform="translate(88.120312 325.230705) rotate(-90) scale(0.1 -0.1)">
       <use xlink:href="#DejaVuSans-33"/>
      </g>
     </g>
    </g>
    <g id="ytick_5">
     <g id="line2d_12">
      <g>
       <use xlink:href="#mb2ec868dcc" x="97.2" y="399.861818" style="stroke: #000000; stroke-width: 0.8"/>
      </g>
     </g>
     <g id="text_10">
      <!-- 4 -->
      <g transform="translate(88.120312 403.043068) rotate(-90) scale(0.1 -0.1)">
       <use xlink:href="#DejaVuSans-34"/>
      </g>
     </g>
    </g>
    <g id="ytick_6">
     <g id="line2d_13">
      <path d="M 97.2 10.8 
L 572.465455 10.8 
" clip-path="url(#p697b2be9bd)" style="fill: none; stroke: #000000; stroke-linecap: square"/>
     </g>
     <g id="line2d_14"/>
    </g>
   </g>
   <g id="text_11">
    <!-- 69.35% -->
    <g style="fill: #0000ff" transform="translate(164.547057 480.433557) scale(0.1 -0.1)">
     <defs>
      <path id="DejaVuSans-36" d="M 2113 2584 
Q 1688 2584 1439 2293 
Q 1191 2003 1191 1497 
Q 1191 994 1439 701 
Q 1688 409 2113 409 
Q 2538 409 2786 701 
Q 3034 994 3034 1497 
Q 3034 2003 2786 2293 
Q 2538 2584 2113 2584 
z
M 3366 4563 
L 3366 3988 
Q 3128 4100 2886 4159 
Q 2644 4219 2406 4219 
Q 1781 4219 1451 3797 
Q 1122 3375 1075 2522 
Q 1259 2794 1537 2939 
Q 1816 3084 2150 3084 
Q 2853 3084 3261 2657 
Q 3669 2231 3669 1497 
Q 3669 778 3244 343 
Q 2819 -91 2113 -91 
Q 1303 -91 875 529 
Q 447 1150 447 2328 
Q 447 3434 972 4092 
Q 1497 4750 2381 4750 
Q 2619 4750 2861 4703 
Q 3103 4656 3366 4563 
z
" transform="scale(0.015625)"/>
      <path id="DejaVuSans-39" d="M 703 97 
L 703 672 
Q 941 559 1184 500 
Q 1428 441 1663 441 
Q 2288 441 2617 861 
Q 2947 1281 2994 2138 
Q 2813 1869 2534 1725 
Q 2256 1581 1919 1581 
Q 1219 1581 811 2004 
Q 403 2428 403 3163 
Q 403 3881 828 4315 
Q 1253 4750 1959 4750 
Q 2769 4750 3195 4129 
Q 3622 3509 3622 2328 
Q 3622 1225 3098 567 
Q 2575 -91 1691 -91 
Q 1453 -91 1209 -44 
Q 966 3 703 97 
z
M 1959 2075 
Q 2384 2075 2632 2365 
Q 2881 2656 2881 3163 
Q 2881 3666 2632 3958 
Q 2384 4250 1959 4250 
Q 1534 4250 1286 3958 
Q 1038 3666 1038 3163 
Q 1038 2656 1286 2365 
Q 1534 2075 1959 2075 
z
" transform="scale(0.015625)"/>
      <path id="DejaVuSans-2e" d="M 684 794 
L 1344 794 
L 1344 0 
L 684 0 
L 684 794 
z
" transform="scale(0.015625)"/>
      <path id="DejaVuSans-35" d="M 691 4666 
L 3169 4666 
L 3169 4134 
L 1269 4134 
L 1269 2991 
Q 1406 3038 1543 3061 
Q 1681 3084 1819 3084 
Q 2600 3084 3056 2656 
Q 3513 2228 3513 1497 
Q 3513 744 3044 326 
Q 2575 -91 1722 -91 
Q 1428 -91 1123 -41 
Q 819 9 494 109 
L 494 744 
Q 775 591 1075 516 
Q 1375 441 1709 441 
Q 2250 441 2565 725 
Q 2881 1009 2881 1497 
Q 2881 1984 2565 2268 
Q 2250 2553 1709 2553 
Q 1456 2553 1204 2497 
Q 953 2441 691 2322 
L 691 4666 
z
" transform="scale(0.015625)"/>
      <path id="DejaVuSans-25" d="M 4653 2053 
Q 4381 2053 4226 1822 
Q 4072 1591 4072 1178 
Q 4072 772 4226 539 
Q 4381 306 4653 306 
Q 4919 306 5073 539 
Q 5228 772 5228 1178 
Q 5228 1588 5073 1820 
Q 4919 2053 4653 2053 
z
M 4653 2450 
Q 5147 2450 5437 2106 
Q 5728 1763 5728 1178 
Q 5728 594 5436 251 
Q 5144 -91 4653 -91 
Q 4153 -91 3862 251 
Q 3572 594 3572 1178 
Q 3572 1766 3864 2108 
Q 4156 2450 4653 2450 
z
M 1428 4353 
Q 1159 4353 1004 4120 
Q 850 3888 850 3481 
Q 850 3069 1003 2837 
Q 1156 2606 1428 2606 
Q 1700 2606 1854 2837 
Q 2009 3069 2009 3481 
Q 2009 3884 1853 4118 
Q 1697 4353 1428 4353 
z
M 4250 4750 
L 4750 4750 
L 1831 -91 
L 1331 -91 
L 4250 4750 
z
M 1428 4750 
Q 1922 4750 2215 4408 
Q 2509 4066 2509 3481 
Q 2509 2891 2217 2550 
Q 1925 2209 1428 2209 
Q 931 2209 642 2551 
Q 353 2894 353 3481 
Q 353 4063 643 4406 
Q 934 4750 1428 4750 
z
" transform="scale(0.015625)"/>
     </defs>
     <use xlink:href="#DejaVuSans-36"/>
     <use xlink:href="#DejaVuSans-39" x="63.623047"/>
     <use xlink:href="#DejaVuSans-2e" x="127.246094"/>
     <use xlink:href="#DejaVuSans-33" x="159.033203"/>
     <use xlink:href="#DejaVuSans-35" x="222.65625"/>
     <use xlink:href="#DejaVuSans-25" x="286.279297"/>
    </g>
   </g>
   <g id="text_12">
    <!-- 30.65% -->
    <g style="fill: #ff0000" transform="translate(164.547057 495.99603) scale(0.1 -0.1)">
     <use xlink:href="#DejaVuSans-33"/>
     <use xlink:href="#DejaVuSans-30" x="63.623047"/>
     <use xlink:href="#DejaVuSans-2e" x="127.246094"/>
     <use xlink:href="#DejaVuSans-36" x="159.033203"/>
     <use xlink:href="#DejaVuSans-35" x="222.65625"/>
     <use xlink:href="#DejaVuSans-25" x="286.279297"/>
    </g>
   </g>
   <g id="text_13">
    <!-- 69.35% -->
    <g style="fill: #0000ff" transform="translate(596.606561 91.371739) scale(0.1 -0.1)">
     <use xlink:href="#DejaVuSans-36"/>
     <use xlink:href="#DejaVuSans-39" x="63.623047"/>
     <use xlink:href="#DejaVuSans-2e" x="127.246094"/>
     <use xlink:href="#DejaVuSans-33" x="159.033203"/>
     <use xlink:href="#DejaVuSans-35" x="222.65625"/>
     <use xlink:href="#DejaVuSans-25" x="286.279297"/>
    </g>
   </g>
   <g id="text_14">
    <!-- 30.65% -->
    <g style="fill: #ff0000" transform="translate(596.606561 106.934211) scale(0.1 -0.1)">
     <use xlink:href="#DejaVuSans-33"/>
     <use xlink:href="#DejaVuSans-30" x="63.623047"/>
     <use xlink:href="#DejaVuSans-2e" x="127.246094"/>
     <use xlink:href="#DejaVuSans-36" x="159.033203"/>
     <use xlink:href="#DejaVuSans-35" x="222.65625"/>
     <use xlink:href="#DejaVuSans-25" x="286.279297"/>
    </g>
   </g>
   <g id="text_15">
    <!-- 43.15% -->
    <g style="fill: #0000ff" transform="translate(250.958958 480.433557) scale(0.1 -0.1)">
     <use xlink:href="#DejaVuSans-34"/>
     <use xlink:href="#DejaVuSans-33" x="63.623047"/>
     <use xlink:href="#DejaVuSans-2e" x="127.246094"/>
     <use xlink:href="#DejaVuSans-31" x="159.033203"/>
     <use xlink:href="#DejaVuSans-35" x="222.65625"/>
     <use xlink:href="#DejaVuSans-25" x="286.279297"/>
    </g>
   </g>
   <g id="text_16">
    <!-- 56.85% -->
    <g style="fill: #ff0000" transform="translate(250.958958 495.99603) scale(0.1 -0.1)">
     <defs>
      <path id="DejaVuSans-38" d="M 2034 2216 
Q 1584 2216 1326 1975 
Q 1069 1734 1069 1313 
Q 1069 891 1326 650 
Q 1584 409 2034 409 
Q 2484 409 2743 651 
Q 3003 894 3003 1313 
Q 3003 1734 2745 1975 
Q 2488 2216 2034 2216 
z
M 1403 2484 
Q 997 2584 770 2862 
Q 544 3141 544 3541 
Q 544 4100 942 4425 
Q 1341 4750 2034 4750 
Q 2731 4750 3128 4425 
Q 3525 4100 3525 3541 
Q 3525 3141 3298 2862 
Q 3072 2584 2669 2484 
Q 3125 2378 3379 2068 
Q 3634 1759 3634 1313 
Q 3634 634 3220 271 
Q 2806 -91 2034 -91 
Q 1263 -91 848 271 
Q 434 634 434 1313 
Q 434 1759 690 2068 
Q 947 2378 1403 2484 
z
M 1172 3481 
Q 1172 3119 1398 2916 
Q 1625 2713 2034 2713 
Q 2441 2713 2670 2916 
Q 2900 3119 2900 3481 
Q 2900 3844 2670 4047 
Q 2441 4250 2034 4250 
Q 1625 4250 1398 4047 
Q 1172 3844 1172 3481 
z
" transform="scale(0.015625)"/>
     </defs>
     <use xlink:href="#DejaVuSans-35"/>
     <use xlink:href="#DejaVuSans-36" x="63.623047"/>
     <use xlink:href="#DejaVuSans-2e" x="127.246094"/>
     <use xlink:href="#DejaVuSans-38" x="159.033203"/>
     <use xlink:href="#DejaVuSans-35" x="222.65625"/>
     <use xlink:href="#DejaVuSans-25" x="286.279297"/>
    </g>
   </g>
   <g id="text_17">
    <!-- 43.23% -->
    <g style="fill: #0000ff" transform="translate(596.606561 169.184102) scale(0.1 -0.1)">
     <use xlink:href="#DejaVuSans-34"/>
     <use xlink:href="#DejaVuSans-33" x="63.623047"/>
     <use xlink:href="#DejaVuSans-2e" x="127.246094"/>
     <use xlink:href="#DejaVuSans-32" x="159.033203"/>
     <use xlink:href="#DejaVuSans-33" x="222.65625"/>
     <use xlink:href="#DejaVuSans-25" x="286.279297"/>
    </g>
   </g>
   <g id="text_18">
    <!-- 56.77% -->
    <g style="fill: #ff0000" transform="translate(596.606561 184.746575) scale(0.1 -0.1)">
     <defs>
      <path id="DejaVuSans-37" d="M 525 4666 
L 3525 4666 
L 3525 4397 
L 1831 0 
L 1172 0 
L 2766 4134 
L 525 4134 
L 525 4666 
z
" transform="scale(0.015625)"/>
     </defs>
     <use xlink:href="#DejaVuSans-35"/>
     <use xlink:href="#DejaVuSans-36" x="63.623047"/>
     <use xlink:href="#DejaVuSans-2e" x="127.246094"/>
     <use xlink:href="#DejaVuSans-37" x="159.033203"/>
     <use xlink:href="#DejaVuSans-37" x="222.65625"/>
     <use xlink:href="#DejaVuSans-25" x="286.279297"/>
    </g>
   </g>
   <g id="text_19">
    <!-- 35.81% -->
    <g style="fill: #0000ff" transform="translate(337.370859 480.433557) scale(0.1 -0.1)">
     <use xlink:href="#DejaVuSans-33"/>
     <use xlink:href="#DejaVuSans-35" x="63.623047"/>
     <use xlink:href="#DejaVuSans-2e" x="127.246094"/>
     <use xlink:href="#DejaVuSans-38" x="159.033203"/>
     <use xlink:href="#DejaVuSans-31" x="222.65625"/>
     <use xlink:href="#DejaVuSans-25" x="286.279297"/>
    </g>
   </g>
   <g id="text_20">
    <!-- 64.19% -->
    <g style="fill: #ff0000" transform="translate(337.370859 495.99603) scale(0.1 -0.1)">
     <use xlink:href="#DejaVuSans-36"/>
     <use xlink:href="#DejaVuSans-34" x="63.623047"/>
     <use xlink:href="#DejaVuSans-2e" x="127.246094"/>
     <use xlink:href="#DejaVuSans-31" x="159.033203"/>
     <use xlink:href="#DejaVuSans-39" x="222.65625"/>
     <use xlink:href="#DejaVuSans-25" x="286.279297"/>
    </g>
   </g>
   <g id="text_21">
    <!-- 35.74% -->
    <g style="fill: #0000ff" transform="translate(596.606561 246.996466) scale(0.1 -0.1)">
     <use xlink:href="#DejaVuSans-33"/>
     <use xlink:href="#DejaVuSans-35" x="63.623047"/>
     <use xlink:href="#DejaVuSans-2e" x="127.246094"/>
     <use xlink:href="#DejaVuSans-37" x="159.033203"/>
     <use xlink:href="#DejaVuSans-34" x="222.65625"/>
     <use xlink:href="#DejaVuSans-25" x="286.279297"/>
    </g>
   </g>
   <g id="text_22">
    <!-- 64.26% -->
    <g style="fill: #ff0000" transform="translate(596.606561 262.558939) scale(0.1 -0.1)">
     <use xlink:href="#DejaVuSans-36"/>
     <use xlink:href="#DejaVuSans-34" x="63.623047"/>
     <use xlink:href="#DejaVuSans-2e" x="127.246094"/>
     <use xlink:href="#DejaVuSans-32" x="159.033203"/>
     <use xlink:href="#DejaVuSans-36" x="222.65625"/>
     <use xlink:href="#DejaVuSans-25" x="286.279297"/>
    </g>
   </g>
   <g id="text_23">
    <!-- 39.80% -->
    <g style="fill: #0000ff" transform="translate(423.78276 480.433557) scale(0.1 -0.1)">
     <use xlink:href="#DejaVuSans-33"/>
     <use xlink:href="#DejaVuSans-39" x="63.623047"/>
     <use xlink:href="#DejaVuSans-2e" x="127.246094"/>
     <use xlink:href="#DejaVuSans-38" x="159.033203"/>
     <use xlink:href="#DejaVuSans-30" x="222.65625"/>
     <use xlink:href="#DejaVuSans-25" x="286.279297"/>
    </g>
   </g>
   <g id="text_24">
    <!-- 60.20% -->
    <g style="fill: #ff0000" transform="translate(423.78276 495.99603) scale(0.1 -0.1)">
     <use xlink:href="#DejaVuSans-36"/>
     <use xlink:href="#DejaVuSans-30" x="63.623047"/>
     <use xlink:href="#DejaVuSans-2e" x="127.246094"/>
     <use xlink:href="#DejaVuSans-32" x="159.033203"/>
     <use xlink:href="#DejaVuSans-30" x="222.65625"/>
     <use xlink:href="#DejaVuSans-25" x="286.279297"/>
    </g>
   </g>
   <g id="text_25">
    <!-- 39.80% -->
    <g style="fill: #0000ff" transform="translate(596.606561 324.80883) scale(0.1 -0.1)">
     <use xlink:href="#DejaVuSans-33"/>
     <use xlink:href="#DejaVuSans-39" x="63.623047"/>
     <use xlink:href="#DejaVuSans-2e" x="127.246094"/>
     <use xlink:href="#DejaVuSans-38" x="159.033203"/>
     <use xlink:href="#DejaVuSans-30" x="222.65625"/>
     <use xlink:href="#DejaVuSans-25" x="286.279297"/>
    </g>
   </g>
   <g id="text_26">
    <!-- 60.20% -->
    <g style="fill: #ff0000" transform="translate(596.606561 340.371302) scale(0.1 -0.1)">
     <use xlink:href="#DejaVuSans-36"/>
     <use xlink:href="#DejaVuSans-30" x="63.623047"/>
     <use xlink:href="#DejaVuSans-2e" x="127.246094"/>
     <use xlink:href="#DejaVuSans-32" x="159.033203"/>
     <use xlink:href="#DejaVuSans-30" x="222.65625"/>
     <use xlink:href="#DejaVuSans-25" x="286.279297"/>
    </g>
   </g>
   <g id="text_27">
    <!-- 69.76% -->
    <g style="fill: #0000ff" transform="translate(510.19466 480.433557) scale(0.1 -0.1)">
     <use xlink:href="#DejaVuSans-36"/>
     <use xlink:href="#DejaVuSans-39" x="63.623047"/>
     <use xlink:href="#DejaVuSans-2e" x="127.246094"/>
     <use xlink:href="#DejaVuSans-37" x="159.033203"/>
     <use xlink:href="#DejaVuSans-36" x="222.65625"/>
     <use xlink:href="#DejaVuSans-25" x="286.279297"/>
    </g>
   </g>
   <g id="text_28">
    <!-- 30.24% -->
    <g style="fill: #ff0000" transform="translate(510.19466 495.99603) scale(0.1 -0.1)">
     <use xlink:href="#DejaVuSans-33"/>
     <use xlink:href="#DejaVuSans-30" x="63.623047"/>
     <use xlink:href="#DejaVuSans-2e" x="127.246094"/>
     <use xlink:href="#DejaVuSans-32" x="159.033203"/>
     <use xlink:href="#DejaVuSans-34" x="222.65625"/>
     <use xlink:href="#DejaVuSans-25" x="286.279297"/>
    </g>
   </g>
   <g id="text_29">
    <!-- 69.76% -->
    <g style="fill: #0000ff" transform="translate(596.606561 402.621193) scale(0.1 -0.1)">
     <use xlink:href="#DejaVuSans-36"/>
     <use xlink:href="#DejaVuSans-39" x="63.623047"/>
     <use xlink:href="#DejaVuSans-2e" x="127.246094"/>
     <use xlink:href="#DejaVuSans-37" x="159.033203"/>
     <use xlink:href="#DejaVuSans-36" x="222.65625"/>
     <use xlink:href="#DejaVuSans-25" x="286.279297"/>
    </g>
   </g>
   <g id="text_30">
    <!-- 30.24% -->
    <g style="fill: #ff0000" transform="translate(596.606561 418.183666) scale(0.1 -0.1)">
     <use xlink:href="#DejaVuSans-33"/>
     <use xlink:href="#DejaVuSans-30" x="63.623047"/>
     <use xlink:href="#DejaVuSans-2e" x="127.246094"/>
     <use xlink:href="#DejaVuSans-32" x="159.033203"/>
     <use xlink:href="#DejaVuSans-34" x="222.65625"/>
     <use xlink:href="#DejaVuSans-25" x="286.279297"/>
    </g>
   </g>
   <g id="text_31">
    <!-- 51.59% -->
    <g style="fill: #0000ff" transform="translate(596.606561 480.433557) scale(0.1 -0.1)">
     <use xlink:href="#DejaVuSans-35"/>
     <use xlink:href="#DejaVuSans-31" x="63.623047"/>
     <use xlink:href="#DejaVuSans-2e" x="127.246094"/>
     <use xlink:href="#DejaVuSans-35" x="159.033203"/>
     <use xlink:href="#DejaVuSans-39" x="222.65625"/>
     <use xlink:href="#DejaVuSans-25" x="286.279297"/>
    </g>
   </g>
   <g id="text_32">
    <!-- 48.41% -->
    <g style="fill: #ff0000" transform="translate(596.606561 495.99603) scale(0.1 -0.1)">
     <use xlink:href="#DejaVuSans-34"/>
     <use xlink:href="#DejaVuSans-38" x="63.623047"/>
     <use xlink:href="#DejaVuSans-2e" x="127.246094"/>
     <use xlink:href="#DejaVuSans-34" x="159.033203"/>
     <use xlink:href="#DejaVuSans-31" x="222.65625"/>
     <use xlink:href="#DejaVuSans-25" x="286.279297"/>
    </g>
   </g>
   <g id="text_33">
    <!-- 344 -->
    <g transform="translate(174.068151 85.772832) scale(0.1 -0.1)">
     <use xlink:href="#DejaVuSans-33"/>
     <use xlink:href="#DejaVuSans-34" x="63.623047"/>
     <use xlink:href="#DejaVuSans-34" x="127.246094"/>
    </g>
    <!-- (13.88%) -->
    <g transform="translate(160.645495 96.970645) scale(0.1 -0.1)">
     <defs>
      <path id="DejaVuSans-28" d="M 1984 4856 
Q 1566 4138 1362 3434 
Q 1159 2731 1159 2009 
Q 1159 1288 1364 580 
Q 1569 -128 1984 -844 
L 1484 -844 
Q 1016 -109 783 600 
Q 550 1309 550 2009 
Q 550 2706 781 3412 
Q 1013 4119 1484 4856 
L 1984 4856 
z
" transform="scale(0.015625)"/>
      <path id="DejaVuSans-29" d="M 513 4856 
L 1013 4856 
Q 1481 4119 1714 3412 
Q 1947 2706 1947 2009 
Q 1947 1309 1714 600 
Q 1481 -109 1013 -844 
L 513 -844 
Q 928 -128 1133 580 
Q 1338 1288 1338 2009 
Q 1338 2731 1133 3434 
Q 928 4138 513 4856 
z
" transform="scale(0.015625)"/>
     </defs>
     <use xlink:href="#DejaVuSans-28"/>
     <use xlink:href="#DejaVuSans-31" x="39.013672"/>
     <use xlink:href="#DejaVuSans-33" x="102.636719"/>
     <use xlink:href="#DejaVuSans-2e" x="166.259766"/>
     <use xlink:href="#DejaVuSans-38" x="198.046875"/>
     <use xlink:href="#DejaVuSans-38" x="261.669922"/>
     <use xlink:href="#DejaVuSans-25" x="325.292969"/>
     <use xlink:href="#DejaVuSans-29" x="420.3125"/>
    </g>
   </g>
   <g id="text_34">
    <!-- 112 -->
    <g transform="translate(260.480052 85.772832) scale(0.1 -0.1)">
     <use xlink:href="#DejaVuSans-31"/>
     <use xlink:href="#DejaVuSans-31" x="63.623047"/>
     <use xlink:href="#DejaVuSans-32" x="127.246094"/>
    </g>
    <!-- (4.52%) -->
    <g transform="translate(250.238645 96.970645) scale(0.1 -0.1)">
     <use xlink:href="#DejaVuSans-28"/>
     <use xlink:href="#DejaVuSans-34" x="39.013672"/>
     <use xlink:href="#DejaVuSans-2e" x="102.636719"/>
     <use xlink:href="#DejaVuSans-35" x="134.423828"/>
     <use xlink:href="#DejaVuSans-32" x="198.046875"/>
     <use xlink:href="#DejaVuSans-25" x="261.669922"/>
     <use xlink:href="#DejaVuSans-29" x="356.689453"/>
    </g>
   </g>
   <g id="text_35">
    <!-- 32 -->
    <g transform="translate(350.073202 85.772832) scale(0.1 -0.1)">
     <use xlink:href="#DejaVuSans-33"/>
     <use xlink:href="#DejaVuSans-32" x="63.623047"/>
    </g>
    <!-- (1.29%) -->
    <g transform="translate(336.650546 96.970645) scale(0.1 -0.1)">
     <use xlink:href="#DejaVuSans-28"/>
     <use xlink:href="#DejaVuSans-31" x="39.013672"/>
     <use xlink:href="#DejaVuSans-2e" x="102.636719"/>
     <use xlink:href="#DejaVuSans-32" x="134.423828"/>
     <use xlink:href="#DejaVuSans-39" x="198.046875"/>
     <use xlink:href="#DejaVuSans-25" x="261.669922"/>
     <use xlink:href="#DejaVuSans-29" x="356.689453"/>
    </g>
   </g>
   <g id="text_36">
    <!-- 5 -->
    <g transform="translate(439.666353 85.772832) scale(0.1 -0.1)">
     <use xlink:href="#DejaVuSans-35"/>
    </g>
    <!-- (0.20%) -->
    <g transform="translate(423.062447 96.970645) scale(0.1 -0.1)">
     <use xlink:href="#DejaVuSans-28"/>
     <use xlink:href="#DejaVuSans-30" x="39.013672"/>
     <use xlink:href="#DejaVuSans-2e" x="102.636719"/>
     <use xlink:href="#DejaVuSans-32" x="134.423828"/>
     <use xlink:href="#DejaVuSans-30" x="198.046875"/>
     <use xlink:href="#DejaVuSans-25" x="261.669922"/>
     <use xlink:href="#DejaVuSans-29" x="356.689453"/>
    </g>
   </g>
   <g id="text_37">
    <!-- 3 -->
    <g transform="translate(526.078254 85.772832) scale(0.1 -0.1)">
     <use xlink:href="#DejaVuSans-33"/>
    </g>
    <!-- (0.12%) -->
    <g transform="translate(509.474348 96.970645) scale(0.1 -0.1)">
     <use xlink:href="#DejaVuSans-28"/>
     <use xlink:href="#DejaVuSans-30" x="39.013672"/>
     <use xlink:href="#DejaVuSans-2e" x="102.636719"/>
     <use xlink:href="#DejaVuSans-31" x="134.423828"/>
     <use xlink:href="#DejaVuSans-32" x="198.046875"/>
     <use xlink:href="#DejaVuSans-25" x="261.669922"/>
     <use xlink:href="#DejaVuSans-29" x="356.689453"/>
    </g>
   </g>
   <g id="text_38">
    <!-- 109 -->
    <g transform="translate(174.068151 163.585196) scale(0.1 -0.1)">
     <use xlink:href="#DejaVuSans-31"/>
     <use xlink:href="#DejaVuSans-30" x="63.623047"/>
     <use xlink:href="#DejaVuSans-39" x="127.246094"/>
    </g>
    <!-- (4.40%) -->
    <g transform="translate(163.826745 174.783009) scale(0.1 -0.1)">
     <use xlink:href="#DejaVuSans-28"/>
     <use xlink:href="#DejaVuSans-34" x="39.013672"/>
     <use xlink:href="#DejaVuSans-2e" x="102.636719"/>
     <use xlink:href="#DejaVuSans-34" x="134.423828"/>
     <use xlink:href="#DejaVuSans-30" x="198.046875"/>
     <use xlink:href="#DejaVuSans-25" x="261.669922"/>
     <use xlink:href="#DejaVuSans-29" x="356.689453"/>
    </g>
   </g>
   <g id="text_39">
    <!-- 214 -->
    <g transform="translate(260.480052 163.585196) scale(0.1 -0.1)">
     <use xlink:href="#DejaVuSans-32"/>
     <use xlink:href="#DejaVuSans-31" x="63.623047"/>
     <use xlink:href="#DejaVuSans-34" x="127.246094"/>
    </g>
    <!-- (8.63%) -->
    <g transform="translate(250.238645 174.783009) scale(0.1 -0.1)">
     <use xlink:href="#DejaVuSans-28"/>
     <use xlink:href="#DejaVuSans-38" x="39.013672"/>
     <use xlink:href="#DejaVuSans-2e" x="102.636719"/>
     <use xlink:href="#DejaVuSans-36" x="134.423828"/>
     <use xlink:href="#DejaVuSans-33" x="198.046875"/>
     <use xlink:href="#DejaVuSans-25" x="261.669922"/>
     <use xlink:href="#DejaVuSans-29" x="356.689453"/>
    </g>
   </g>
   <g id="text_40">
    <!-- 125 -->
    <g transform="translate(346.891952 163.585196) scale(0.1 -0.1)">
     <use xlink:href="#DejaVuSans-31"/>
     <use xlink:href="#DejaVuSans-32" x="63.623047"/>
     <use xlink:href="#DejaVuSans-35" x="127.246094"/>
    </g>
    <!-- (5.04%) -->
    <g transform="translate(336.650546 174.783009) scale(0.1 -0.1)">
     <use xlink:href="#DejaVuSans-28"/>
     <use xlink:href="#DejaVuSans-35" x="39.013672"/>
     <use xlink:href="#DejaVuSans-2e" x="102.636719"/>
     <use xlink:href="#DejaVuSans-30" x="134.423828"/>
     <use xlink:href="#DejaVuSans-34" x="198.046875"/>
     <use xlink:href="#DejaVuSans-25" x="261.669922"/>
     <use xlink:href="#DejaVuSans-29" x="356.689453"/>
    </g>
   </g>
   <g id="text_41">
    <!-- 44 -->
    <g transform="translate(436.485103 163.585196) scale(0.1 -0.1)">
     <use xlink:href="#DejaVuSans-34"/>
     <use xlink:href="#DejaVuSans-34" x="63.623047"/>
    </g>
    <!-- (1.77%) -->
    <g transform="translate(423.062447 174.783009) scale(0.1 -0.1)">
     <use xlink:href="#DejaVuSans-28"/>
     <use xlink:href="#DejaVuSans-31" x="39.013672"/>
     <use xlink:href="#DejaVuSans-2e" x="102.636719"/>
     <use xlink:href="#DejaVuSans-37" x="134.423828"/>
     <use xlink:href="#DejaVuSans-37" x="198.046875"/>
     <use xlink:href="#DejaVuSans-25" x="261.669922"/>
     <use xlink:href="#DejaVuSans-29" x="356.689453"/>
    </g>
   </g>
   <g id="text_42">
    <!-- 3 -->
    <g transform="translate(526.078254 163.585196) scale(0.1 -0.1)">
     <use xlink:href="#DejaVuSans-33"/>
    </g>
    <!-- (0.12%) -->
    <g transform="translate(509.474348 174.783009) scale(0.1 -0.1)">
     <use xlink:href="#DejaVuSans-28"/>
     <use xlink:href="#DejaVuSans-30" x="39.013672"/>
     <use xlink:href="#DejaVuSans-2e" x="102.636719"/>
     <use xlink:href="#DejaVuSans-31" x="134.423828"/>
     <use xlink:href="#DejaVuSans-32" x="198.046875"/>
     <use xlink:href="#DejaVuSans-25" x="261.669922"/>
     <use xlink:href="#DejaVuSans-29" x="356.689453"/>
    </g>
   </g>
   <g id="text_43">
    <!-- 32 -->
    <g transform="translate(177.249401 241.39756) scale(0.1 -0.1)">
     <use xlink:href="#DejaVuSans-33"/>
     <use xlink:href="#DejaVuSans-32" x="63.623047"/>
    </g>
    <!-- (1.29%) -->
    <g transform="translate(163.826745 252.595372) scale(0.1 -0.1)">
     <use xlink:href="#DejaVuSans-28"/>
     <use xlink:href="#DejaVuSans-31" x="39.013672"/>
     <use xlink:href="#DejaVuSans-2e" x="102.636719"/>
     <use xlink:href="#DejaVuSans-32" x="134.423828"/>
     <use xlink:href="#DejaVuSans-39" x="198.046875"/>
     <use xlink:href="#DejaVuSans-25" x="261.669922"/>
     <use xlink:href="#DejaVuSans-29" x="356.689453"/>
    </g>
   </g>
   <g id="text_44">
    <!-- 122 -->
    <g transform="translate(260.480052 241.39756) scale(0.1 -0.1)">
     <use xlink:href="#DejaVuSans-31"/>
     <use xlink:href="#DejaVuSans-32" x="63.623047"/>
     <use xlink:href="#DejaVuSans-32" x="127.246094"/>
    </g>
    <!-- (4.92%) -->
    <g transform="translate(250.238645 252.595372) scale(0.1 -0.1)">
     <use xlink:href="#DejaVuSans-28"/>
     <use xlink:href="#DejaVuSans-34" x="39.013672"/>
     <use xlink:href="#DejaVuSans-2e" x="102.636719"/>
     <use xlink:href="#DejaVuSans-39" x="134.423828"/>
     <use xlink:href="#DejaVuSans-32" x="198.046875"/>
     <use xlink:href="#DejaVuSans-25" x="261.669922"/>
     <use xlink:href="#DejaVuSans-29" x="356.689453"/>
    </g>
   </g>
   <g id="text_45">
    <!-- 178 -->
    <g transform="translate(346.891952 241.39756) scale(0.1 -0.1)">
     <use xlink:href="#DejaVuSans-31"/>
     <use xlink:href="#DejaVuSans-37" x="63.623047"/>
     <use xlink:href="#DejaVuSans-38" x="127.246094"/>
    </g>
    <!-- (7.18%) -->
    <g transform="translate(336.650546 252.595372) scale(0.1 -0.1)">
     <use xlink:href="#DejaVuSans-28"/>
     <use xlink:href="#DejaVuSans-37" x="39.013672"/>
     <use xlink:href="#DejaVuSans-2e" x="102.636719"/>
     <use xlink:href="#DejaVuSans-31" x="134.423828"/>
     <use xlink:href="#DejaVuSans-38" x="198.046875"/>
     <use xlink:href="#DejaVuSans-25" x="261.669922"/>
     <use xlink:href="#DejaVuSans-29" x="356.689453"/>
    </g>
   </g>
   <g id="text_46">
    <!-- 135 -->
    <g transform="translate(433.303853 241.39756) scale(0.1 -0.1)">
     <use xlink:href="#DejaVuSans-31"/>
     <use xlink:href="#DejaVuSans-33" x="63.623047"/>
     <use xlink:href="#DejaVuSans-35" x="127.246094"/>
    </g>
    <!-- (5.45%) -->
    <g transform="translate(423.062447 252.595372) scale(0.1 -0.1)">
     <use xlink:href="#DejaVuSans-28"/>
     <use xlink:href="#DejaVuSans-35" x="39.013672"/>
     <use xlink:href="#DejaVuSans-2e" x="102.636719"/>
     <use xlink:href="#DejaVuSans-34" x="134.423828"/>
     <use xlink:href="#DejaVuSans-35" x="198.046875"/>
     <use xlink:href="#DejaVuSans-25" x="261.669922"/>
     <use xlink:href="#DejaVuSans-29" x="356.689453"/>
    </g>
   </g>
   <g id="text_47">
    <!-- 31 -->
    <g transform="translate(522.897004 241.39756) scale(0.1 -0.1)">
     <use xlink:href="#DejaVuSans-33"/>
     <use xlink:href="#DejaVuSans-31" x="63.623047"/>
    </g>
    <!-- (1.25%) -->
    <g transform="translate(509.474348 252.595372) scale(0.1 -0.1)">
     <use xlink:href="#DejaVuSans-28"/>
     <use xlink:href="#DejaVuSans-31" x="39.013672"/>
     <use xlink:href="#DejaVuSans-2e" x="102.636719"/>
     <use xlink:href="#DejaVuSans-32" x="134.423828"/>
     <use xlink:href="#DejaVuSans-35" x="198.046875"/>
     <use xlink:href="#DejaVuSans-25" x="261.669922"/>
     <use xlink:href="#DejaVuSans-29" x="356.689453"/>
    </g>
   </g>
   <g id="text_48">
    <!-- 7 -->
    <g transform="translate(180.430651 319.209923) scale(0.1 -0.1)">
     <use xlink:href="#DejaVuSans-37"/>
    </g>
    <!-- (0.28%) -->
    <g transform="translate(163.826745 330.407736) scale(0.1 -0.1)">
     <use xlink:href="#DejaVuSans-28"/>
     <use xlink:href="#DejaVuSans-30" x="39.013672"/>
     <use xlink:href="#DejaVuSans-2e" x="102.636719"/>
     <use xlink:href="#DejaVuSans-32" x="134.423828"/>
     <use xlink:href="#DejaVuSans-38" x="198.046875"/>
     <use xlink:href="#DejaVuSans-25" x="261.669922"/>
     <use xlink:href="#DejaVuSans-29" x="356.689453"/>
    </g>
   </g>
   <g id="text_49">
    <!-- 43 -->
    <g transform="translate(263.661302 319.209923) scale(0.1 -0.1)">
     <use xlink:href="#DejaVuSans-34"/>
     <use xlink:href="#DejaVuSans-33" x="63.623047"/>
    </g>
    <!-- (1.73%) -->
    <g transform="translate(250.238645 330.407736) scale(0.1 -0.1)">
     <use xlink:href="#DejaVuSans-28"/>
     <use xlink:href="#DejaVuSans-31" x="39.013672"/>
     <use xlink:href="#DejaVuSans-2e" x="102.636719"/>
     <use xlink:href="#DejaVuSans-37" x="134.423828"/>
     <use xlink:href="#DejaVuSans-33" x="198.046875"/>
     <use xlink:href="#DejaVuSans-25" x="261.669922"/>
     <use xlink:href="#DejaVuSans-29" x="356.689453"/>
    </g>
   </g>
   <g id="text_50">
    <!-- 136 -->
    <g transform="translate(346.891952 319.209923) scale(0.1 -0.1)">
     <use xlink:href="#DejaVuSans-31"/>
     <use xlink:href="#DejaVuSans-33" x="63.623047"/>
     <use xlink:href="#DejaVuSans-36" x="127.246094"/>
    </g>
    <!-- (5.49%) -->
    <g transform="translate(336.650546 330.407736) scale(0.1 -0.1)">
     <use xlink:href="#DejaVuSans-28"/>
     <use xlink:href="#DejaVuSans-35" x="39.013672"/>
     <use xlink:href="#DejaVuSans-2e" x="102.636719"/>
     <use xlink:href="#DejaVuSans-34" x="134.423828"/>
     <use xlink:href="#DejaVuSans-39" x="198.046875"/>
     <use xlink:href="#DejaVuSans-25" x="261.669922"/>
     <use xlink:href="#DejaVuSans-29" x="356.689453"/>
    </g>
   </g>
   <g id="text_51">
    <!-- 197 -->
    <g transform="translate(433.303853 319.209923) scale(0.1 -0.1)">
     <use xlink:href="#DejaVuSans-31"/>
     <use xlink:href="#DejaVuSans-39" x="63.623047"/>
     <use xlink:href="#DejaVuSans-37" x="127.246094"/>
    </g>
    <!-- (7.95%) -->
    <g transform="translate(423.062447 330.407736) scale(0.1 -0.1)">
     <use xlink:href="#DejaVuSans-28"/>
     <use xlink:href="#DejaVuSans-37" x="39.013672"/>
     <use xlink:href="#DejaVuSans-2e" x="102.636719"/>
     <use xlink:href="#DejaVuSans-39" x="134.423828"/>
     <use xlink:href="#DejaVuSans-35" x="198.046875"/>
     <use xlink:href="#DejaVuSans-25" x="261.669922"/>
     <use xlink:href="#DejaVuSans-29" x="356.689453"/>
    </g>
   </g>
   <g id="text_52">
    <!-- 112 -->
    <g transform="translate(519.715754 319.209923) scale(0.1 -0.1)">
     <use xlink:href="#DejaVuSans-31"/>
     <use xlink:href="#DejaVuSans-31" x="63.623047"/>
     <use xlink:href="#DejaVuSans-32" x="127.246094"/>
    </g>
    <!-- (4.52%) -->
    <g transform="translate(509.474348 330.407736) scale(0.1 -0.1)">
     <use xlink:href="#DejaVuSans-28"/>
     <use xlink:href="#DejaVuSans-34" x="39.013672"/>
     <use xlink:href="#DejaVuSans-2e" x="102.636719"/>
     <use xlink:href="#DejaVuSans-35" x="134.423828"/>
     <use xlink:href="#DejaVuSans-32" x="198.046875"/>
     <use xlink:href="#DejaVuSans-25" x="261.669922"/>
     <use xlink:href="#DejaVuSans-29" x="356.689453"/>
    </g>
   </g>
   <g id="text_53">
    <!-- 4 -->
    <g transform="translate(180.430651 397.022287) scale(0.1 -0.1)">
     <use xlink:href="#DejaVuSans-34"/>
    </g>
    <!-- (0.16%) -->
    <g transform="translate(163.826745 408.220099) scale(0.1 -0.1)">
     <use xlink:href="#DejaVuSans-28"/>
     <use xlink:href="#DejaVuSans-30" x="39.013672"/>
     <use xlink:href="#DejaVuSans-2e" x="102.636719"/>
     <use xlink:href="#DejaVuSans-31" x="134.423828"/>
     <use xlink:href="#DejaVuSans-36" x="198.046875"/>
     <use xlink:href="#DejaVuSans-25" x="261.669922"/>
     <use xlink:href="#DejaVuSans-29" x="356.689453"/>
    </g>
   </g>
   <g id="text_54">
    <!-- 5 -->
    <g transform="translate(266.842552 397.022287) scale(0.1 -0.1)">
     <use xlink:href="#DejaVuSans-35"/>
    </g>
    <!-- (0.20%) -->
    <g transform="translate(250.238645 408.220099) scale(0.1 -0.1)">
     <use xlink:href="#DejaVuSans-28"/>
     <use xlink:href="#DejaVuSans-30" x="39.013672"/>
     <use xlink:href="#DejaVuSans-2e" x="102.636719"/>
     <use xlink:href="#DejaVuSans-32" x="134.423828"/>
     <use xlink:href="#DejaVuSans-30" x="198.046875"/>
     <use xlink:href="#DejaVuSans-25" x="261.669922"/>
     <use xlink:href="#DejaVuSans-29" x="356.689453"/>
    </g>
   </g>
   <g id="text_55">
    <!-- 26 -->
    <g transform="translate(350.073202 397.022287) scale(0.1 -0.1)">
     <use xlink:href="#DejaVuSans-32"/>
     <use xlink:href="#DejaVuSans-36" x="63.623047"/>
    </g>
    <!-- (1.05%) -->
    <g transform="translate(336.650546 408.220099) scale(0.1 -0.1)">
     <use xlink:href="#DejaVuSans-28"/>
     <use xlink:href="#DejaVuSans-31" x="39.013672"/>
     <use xlink:href="#DejaVuSans-2e" x="102.636719"/>
     <use xlink:href="#DejaVuSans-30" x="134.423828"/>
     <use xlink:href="#DejaVuSans-35" x="198.046875"/>
     <use xlink:href="#DejaVuSans-25" x="261.669922"/>
     <use xlink:href="#DejaVuSans-29" x="356.689453"/>
    </g>
   </g>
   <g id="text_56">
    <!-- 114 -->
    <g transform="translate(433.303853 397.022287) scale(0.1 -0.1)">
     <use xlink:href="#DejaVuSans-31"/>
     <use xlink:href="#DejaVuSans-31" x="63.623047"/>
     <use xlink:href="#DejaVuSans-34" x="127.246094"/>
    </g>
    <!-- (4.60%) -->
    <g transform="translate(423.062447 408.220099) scale(0.1 -0.1)">
     <use xlink:href="#DejaVuSans-28"/>
     <use xlink:href="#DejaVuSans-34" x="39.013672"/>
     <use xlink:href="#DejaVuSans-2e" x="102.636719"/>
     <use xlink:href="#DejaVuSans-36" x="134.423828"/>
     <use xlink:href="#DejaVuSans-30" x="198.046875"/>
     <use xlink:href="#DejaVuSans-25" x="261.669922"/>
     <use xlink:href="#DejaVuSans-29" x="356.689453"/>
    </g>
   </g>
   <g id="text_57">
    <!-- 346 -->
    <g transform="translate(519.715754 397.022287) scale(0.1 -0.1)">
     <use xlink:href="#DejaVuSans-33"/>
     <use xlink:href="#DejaVuSans-34" x="63.623047"/>
     <use xlink:href="#DejaVuSans-36" x="127.246094"/>
    </g>
    <!-- (13.96%) -->
    <g transform="translate(506.293098 408.220099) scale(0.1 -0.1)">
     <use xlink:href="#DejaVuSans-28"/>
     <use xlink:href="#DejaVuSans-31" x="39.013672"/>
     <use xlink:href="#DejaVuSans-33" x="102.636719"/>
     <use xlink:href="#DejaVuSans-2e" x="166.259766"/>
     <use xlink:href="#DejaVuSans-39" x="198.046875"/>
     <use xlink:href="#DejaVuSans-36" x="261.669922"/>
     <use xlink:href="#DejaVuSans-25" x="325.292969"/>
     <use xlink:href="#DejaVuSans-29" x="420.3125"/>
    </g>
   </g>
  </g>
 </g>
 <defs>
  <clipPath id="p697b2be9bd">
   <rect x="97.2" y="10.8" width="475.265455" height="427.968"/>
  </clipPath>
 </defs>
</svg>
